<svg width="38" height="39" viewBox="0 0 38 39" fill="none" xmlns="http://www.w3.org/2000/svg">
<path d="M23.0841 9.98673C25.8096 4.97338 23.6348 0.376584 22.3163 0.307981C20.9979 0.238929 16.6873 6.07372 16.6873 6.07372H7.98768C7.98768 6.07372 3.67651 0.239378 2.35869 0.307981C1.04012 0.375986 -1.13457 4.9733 1.59088 9.98673C3.38203 13.2816 -0.542908 16.7027 0.23336 20.0778C1.06689 23.7071 5.6849 31.6093 5.6849 32.4334C5.6849 33.257 4.91709 36.1402 6.70824 37.3756C8.4993 38.6115 12.3371 38.6115 12.3371 38.6115C12.3371 38.6115 16.1756 38.6115 17.9668 37.3756C19.7579 36.1401 18.9901 33.257 18.9901 32.4334C18.9901 31.6093 23.9599 22.9421 24.4416 20.0778C25.1178 16.0664 21.293 13.2816 23.0841 9.98673ZM9.58697 36.1401C9.16309 36.1401 8.81916 35.6331 8.81916 35.0073C8.81916 34.382 9.16309 33.875 9.58697 33.875C10.0103 33.875 10.3542 34.382 10.3542 35.0073C10.3542 35.6331 10.0103 36.1401 9.58697 36.1401ZM12.2982 28.9323C10.9848 25.1564 9.67156 15.1779 9.06437 10.1259C10.1228 11.129 11.7195 11.9542 13.3222 12.2519L13.066 9.78114L15.4852 10.5221C14.8585 15.6834 13.5789 25.2528 12.2982 28.9323ZM15.088 36.1401C14.6641 36.1401 14.3201 35.6331 14.3201 35.0073C14.3201 34.382 14.6641 33.875 15.088 33.875C15.5119 33.875 15.8559 34.382 15.8559 35.0073C15.8559 35.6331 15.5119 36.1401 15.088 36.1401ZM15.8454 7.42634L15.636 7.10352H15.8805C15.8805 7.10352 15.8688 7.21813 15.8454 7.42634Z" fill="#063148"/>
<path d="M29.7463 23.9813V30.3653M29.7463 30.3653V36.7494M29.7463 30.3653H36.1303M29.7463 30.3653H23.3623" stroke="#063148" stroke-width="3" stroke-linecap="round" stroke-linejoin="round"/>
</svg>
