<svg width="361" height="237" viewBox="0 0 361 237" fill="none" xmlns="http://www.w3.org/2000/svg">
<path d="M249.296 218.915C222.772 229.741 148.007 231.654 101.251 236.666C111.842 220.555 120.402 144.488 122.514 101.712C94.5248 127.06 39.5067 183.542 34.7265 217.48C5.09063 204.335 -5.29909 175.971 3.69154 125.476C8.63477 97.713 74.3037 35.1595 124.434 3.11356L152.384 0.300293C175.433 11.4893 206.861 25.2367 221.379 23.8009C235.898 22.365 288.913 14.1298 313.998 11.4893L359.367 68.4413C360.423 103.296 362.966 173.496 357.227 173.496C337.726 173.496 256.63 215.921 249.296 218.915Z" fill="#00497C"/>
</svg>
