<svg width="45" height="45" viewBox="0 0 45 45" fill="none" xmlns="http://www.w3.org/2000/svg">
<path d="M0.205078 2.95166C0.205078 1.8471 1.10052 0.95166 2.20508 0.95166C3.30964 0.95166 4.20508 1.8471 4.20508 2.95166V38.9517C4.20508 40.0563 5.1005 40.9517 6.20508 40.9517H42.2051C43.3097 40.9517 44.2051 41.8471 44.2051 42.9517C44.2051 44.0563 43.3097 44.9517 42.2051 44.9517H4.20508C1.99594 44.9517 0.205078 43.1609 0.205078 40.9517V2.95166Z" fill="#063148"/>
<path d="M38.0619 9.69449C38.4721 8.66893 37.9733 7.50499 36.9477 7.09475C35.9221 6.68453 34.7581 7.18337 34.3479 8.20893L27.8497 24.4543C27.6005 25.0773 26.8205 25.2829 26.2967 24.8639L20.3671 20.1203C18.9287 18.9695 16.8024 19.3749 15.8884 20.9745L8.46845 33.9595C7.92043 34.9185 8.25361 36.1401 9.21265 36.6881C10.1717 37.2363 11.3934 36.9031 11.9414 35.9439L18.2013 24.9891C18.5059 24.4559 19.2147 24.3209 19.6943 24.7045L25.9029 29.6713C27.4749 30.9289 29.8149 30.3121 30.5625 28.4429L38.0619 9.69449Z" fill="#063148"/>
</svg>
