<svg width="40" height="32" viewBox="0 0 40 32" fill="none" xmlns="http://www.w3.org/2000/svg">
<path d="M18.2051 1.95166H38.2051M18.2051 9.95166H28.2051" stroke="#063148" stroke-width="3" stroke-linecap="round" stroke-linejoin="round"/>
<path d="M8.20508 1.95166H4.20508C3.10051 1.95166 2.20508 2.84709 2.20508 3.95166V7.95166C2.20508 9.05623 3.10051 9.95166 4.20508 9.95166H8.20508C9.30965 9.95166 10.2051 9.05623 10.2051 7.95166V3.95166C10.2051 2.84709 9.30965 1.95166 8.20508 1.95166Z" fill="#063148" stroke="#063148" stroke-width="3" stroke-linecap="round" stroke-linejoin="round"/>
<path d="M18.2051 21.9517H38.2051M18.2051 29.9517H28.2051" stroke="#063148" stroke-width="3" stroke-linecap="round" stroke-linejoin="round"/>
<path d="M8.20508 21.9517H4.20508C3.10051 21.9517 2.20508 22.8471 2.20508 23.9517V27.9517C2.20508 29.0562 3.10051 29.9517 4.20508 29.9517H8.20508C9.30965 29.9517 10.2051 29.0562 10.2051 27.9517V23.9517C10.2051 22.8471 9.30965 21.9517 8.20508 21.9517Z" fill="#063148" stroke="#063148" stroke-width="3" stroke-linecap="round" stroke-linejoin="round"/>
</svg>
